<svg version="1" xmlns="http://www.w3.org/2000/svg" width="933.333" height="933.333" viewBox="0 0 700.000000 700.000000"><path d="M324.5 12.6c-46.9 4.6-82.3 14.1-120.5 32.5-17.2 8.3-26.8 13.7-41 23.2C76.9 125.6 21.5 219.2 12.9 321.6c-1.4 17.1-.6 57.5 1.5 72.6 8.8 62.6 33 119.2 71.5 167.1C142 631.1 220.3 674.7 310 686.2c14.2 1.8 65.9 1.8 80-.1 76.7-9.8 144.5-42.8 198.1-96.1 57.9-57.7 91.4-129.4 99-212 1.4-15.7.6-56.5-1.5-71.5-5.6-39.7-15.6-72.2-33.2-107.5-16.6-33.4-36.7-61.2-63.5-88-43.8-43.9-98.7-74.8-158.5-89.5-26.8-6.6-43.2-8.5-74.9-8.9-14.8-.2-28.8-.2-31 0zm-45.3 220.6l.3 85.2 79-85.2 79-85.1 52-.1h51.9l-4.6 4.7c-89.1 92.5-153.8 160.8-153.4 162 .3.8 37.5 51.3 82.6 112.3 45.1 60.9 82 111.1 82 111.4 0 .3-23.1.6-51.3.6h-51.2L385 456c-33.2-45.7-60.7-82.9-61.1-82.8-.4.2-10.6 10.6-22.8 23.3l-22.1 23V539h-86V148h86l.2 85.2z"/></svg>