<svg xmlns="http://www.w3.org/2000/svg" viewBox="0 0 274.7 84.5"><style>.st0{enable-background:new}.kovi-i,.kovi-k,.kovi-o,.kovi-play,.kovi-v{fill:#fff}</style><g class="st0"><path class="kovi-k" d="M1.6 2.2h17.6v34.9L51.5 2.2h21.2L40.2 36.1l34 45.9H53.1L28.4 48l-9.2 9.6V82H1.6V2.2z"/><path class="kovi-o" d="M75 42.1C75 19.4 92.9.8 117.5.8s42.3 18.4 42.3 41.3c0 22.7-17.9 41.3-42.5 41.3S75 65 75 42.1zm66.5 0c0-13.7-10-25.1-24.2-25.1s-24 11.2-24 25.1c0 13.7 10 25.1 24.2 25.1s24-11.2 24-25.1z"/><path class="kovi-v" d="M163.5 2.2h19.4l20.9 56.2 20.9-56.2h18.9l-32.3 80.4h-15.5L163.5 2.2z"/><path class="kovi-i" d="M256.6 2.2h17.6V82h-17.6V2.2z"/></g><path class="kovi-play" d="M127.5 42.5L111 33v19z"/></svg>